<svg width="380" height="180" viewBox="0 0 380 180" fill="none" xmlns="http://www.w3.org/2000/svg">
<g clip-path="url(#clip0_8_11)">
<path d="M7.7 107.8L0 115.5L12 127.5L24 139.5L12 151.5L0 163.5L8 171.5L16 179.5L28 167.5L40 155.5L52 167.5L64 179.5L72 171.5L80 163.5L68 151.5L56 139.5L68 127.5L80 115.5L72 107.5L64 99.5L52 111.5L40 123.5L28.2 111.7C21.8 105.3 16.2 100 16 100C15.7 100 12 103.5 7.7 107.8Z" fill="#FFD700"/>
<path d="M107.7 107.8L100 115.5L112 127.5L124 139.5L112 151.5L100 163.5L108 171.5L116 179.5L128 167.5L140 155.5L152 167.5L164 179.5L172 171.5L180 163.5L168 151.5L156 139.5L168 127.5L180 115.5L172 107.5L164 99.5L152 111.5L140 123.5L128.2 111.7C121.8 105.3 116.2 100 116 100C115.7 100 112 103.5 107.7 107.8Z" fill="#0000FF"/>
<path d="M207.7 107.8L200 115.5L212 127.5L224 139.5L212 151.5L200 163.5L208 171.5L216 179.5L228 167.5L240 155.5L252 167.5L264 179.5L272 171.5L280 163.5L268 151.5L256 139.5L268 127.5L280 115.5L272 107.5L264 99.5L252 111.5L240 123.5L228.2 111.7C221.8 105.3 216.2 100 216 100C215.7 100 212 103.5 207.7 107.8Z" fill="#FF0000"/>
</g>
<g clip-path="url(#clip1_8_11)">
<path d="M107.7 7.8L100 15.5L112 27.5L124 39.5L112 51.5L100 63.5L108 71.5L116 79.5L128 67.5L140 55.5L152 67.5L164 79.5L172 71.5L180 63.5L168 51.5L156 39.5L168 27.5L180 15.5L172 7.49999L164 -0.500008L152 11.5L140 23.5L128.2 11.7C121.8 5.3 116.2 -7.62939e-06 116 -7.62939e-06C115.7 -7.62939e-06 112 3.49999 107.7 7.8Z" fill="black"/>
<path d="M207.7 7.8L200 15.5L212 27.5L224 39.5L212 51.5L200 63.5L208 71.5L216 79.5L228 67.5L240 55.5L252 67.5L264 79.5L272 71.5L280 63.5L268 51.5L256 39.5L268 27.5L280 15.5L272 7.49999L264 -0.500008L252 11.5L240 23.5L228.2 11.7C221.8 5.3 216.2 -7.62939e-06 216 -7.62939e-06C215.7 -7.62939e-06 212 3.49999 207.7 7.8Z" fill="black"/>
<path d="M307.7 7.8L300 15.5L312 27.5L324 39.5L312 51.5L300 63.5L308 71.5L316 79.5L328 67.5L340 55.5L352 67.5L364 79.5L372 71.5L380 63.5L368 51.5L356 39.5L368 27.5L380 15.5L372 7.49999L364 -0.500008L352 11.5L340 23.5L328.2 11.7C321.8 5.3 316.2 -7.62939e-06 316 -7.62939e-06C315.7 -7.62939e-06 312 3.49999 307.7 7.8Z" fill="black"/>
</g>
<defs>
<clipPath id="clip0_8_11">
<rect width="280" height="80" fill="white" transform="translate(0 100)"/>
</clipPath>
<clipPath id="clip1_8_11">
<rect width="280" height="80" fill="white" transform="translate(100)"/>
</clipPath>
</defs>
</svg>
